<?xml version="1.0" encoding="utf-8"?>
<svg viewBox="0 0 238 45" xmlns="http://www.w3.org/2000/svg">
  <g transform="matrix(0.10000000149011612, 0, 0, -0.10000000149011612, 0, 45)" fill="#000000" stroke="none">
    <path d="M 1851 363 L 1880 338 L 1880 69 L 1848 72 L 1815 75 L 1812 198 L 1809 320 L 1715 320 L 1620 320 L 1620 194 L 1620 69 L 1588 72 L 1555 75 L 1552 228 L 1549 380 L 1585 380 C 1604 380 1620 375 1620 369 C 1620 363 1629 365 1642 374 C 1657 385 1687 389 1742 388 C 1811 387 1826 384 1851 363 Z M 2040 369 C 2040 350 2040 350 2068 369 C 2089 385 2109 389 2160 387 L 2225 385 L 2228 353 L 2231 320 L 2166 320 L 2101 320 L 2098 198 L 2095 75 L 2063 72 L 2030 69 L 2030 194 L 2030 320 L 1965 320 L 1900 320 L 1900 354 L 1900 388 L 1970 388 C 2033 388 2040 386 2040 369 Z M 2300 375 C 2320 350 2308 325 2275 325 C 2254 325 2244 330 2242 343 C 2238 364 2256 390 2275 390 C 2282 390 2293 383 2300 375 Z M 175 260 C 233 103 242 103 298 260 L 342 380 L 376 380 C 395 380 410 378 410 376 C 410 374 390 318 366 251 C 322 129 300 97 251 84 C 224 76 184 97 158 132 C 148 145 123 206 100 268 L 60 381 L 96 378 L 132 375 L 175 260 Z M 500 230 L 500 80 L 465 80 L 430 80 L 430 230 L 430 380 L 465 380 L 500 380 L 500 230 Z M 590 368 C 590 359 593 359 602 368 C 610 376 648 380 705 380 C 792 380 798 379 823 352 C 849 325 850 321 850 202 L 850 80 L 815 80 L 780 80 L 780 200 L 780 320 L 685 320 L 590 320 L 590 200 L 590 80 L 555 80 L 520 80 L 520 230 L 520 380 L 555 380 C 576 380 590 375 590 368 Z M 1190 350 L 1190 320 L 1061 320 L 933 320 L 931 230 L 930 140 L 1060 140 L 1190 140 L 1190 110 L 1190 80 L 1053 80 C 918 80 916 80 888 107 C 854 140 851 186 881 224 L 901 250 L 881 250 C 848 250 852 315 887 352 L 914 380 L 1052 380 L 1190 380 L 1190 350 Z M 1540 350 L 1540 320 L 1410 320 L 1280 320 L 1280 295 L 1280 271 L 1398 268 L 1515 265 L 1515 230 L 1515 195 L 1398 192 L 1280 189 L 1280 165 L 1280 140 L 1411 140 L 1541 140 L 1538 108 L 1535 75 L 1395 78 C 1270 81 1253 84 1233 103 C 1202 131 1202 195 1232 227 L 1253 250 L 1232 250 C 1213 250 1210 256 1210 292 C 1210 321 1217 341 1232 357 C 1253 379 1260 380 1397 380 L 1540 380 L 1540 350 Z" style="fill: rgb(255, 255, 255);"/>
  </g>
</svg>