<?xml version="1.0" encoding="utf-8"?>
<svg viewBox="0 0 65 65" xmlns="http://www.w3.org/2000/svg">
  <g transform="matrix(0.10000000149011612, 0, 0, -0.10000000149011612, 0, 65)"  fill="#000000" stroke="none">
    <path d="M 420 574 C 442 565 460 555 460 551 C 460 548 434 473 402 385 C 349 237 342 225 320 225 C 297 225 291 235 255 337 C 220 435 212 450 193 450 C 180 450 170 446 170 442 C 170 437 186 388 206 334 C 232 263 250 227 273 208 C 312 173 328 173 367 208 C 392 229 409 264 445 364 C 505 534 502 529 529 492 C 565 440 580 393 580 328 C 579 178 471 70 320 70 C 168 70 60 178 60 330 C 60 437 109 518 202 564 C 264 595 357 599 420 574 Z" style="paint-order: fill; fill: rgb(255, 255, 255);"/>
  </g>
</svg>
